<svg xmlns="http://www.w3.org/2000/svg" viewBox="0 0 512 512" width="512" height="512">
  <defs>
    <!-- Forge gradient -->
    <linearGradient id="m_forgeOrange" x1="0%" y1="0%" x2="100%" y2="100%">
      <stop offset="0%" stop-color="#FF9A56"/>
      <stop offset="50%" stop-color="#F97316"/>
      <stop offset="100%" stop-color="#D94F00"/>
    </linearGradient>

    <!-- Steel dark -->
    <linearGradient id="m_steel" x1="0%" y1="0%" x2="0%" y2="100%">
      <stop offset="0%" stop-color="#374151"/>
      <stop offset="100%" stop-color="#1F2937"/>
    </linearGradient>

    <!-- Rounded square background -->
    <linearGradient id="m_bgGrad" x1="0%" y1="0%" x2="100%" y2="100%">
      <stop offset="0%" stop-color="#111827"/>
      <stop offset="100%" stop-color="#0F172A"/>
    </linearGradient>

    <!-- Spark glow -->
    <filter id="m_sparkGlow" x="-100%" y="-100%" width="300%" height="300%">
      <feGaussianBlur in="SourceGraphic" stdDeviation="8" result="blur"/>
      <feColorMatrix in="blur" type="matrix"
        values="1 0.6 0.2 0 0  0.6 0.3 0.1 0 0  0.2 0.1 0 0 0  0 0 0 0.8 0"/>
      <feMerge>
        <feMergeNode/>
        <feMergeNode in="SourceGraphic"/>
      </feMerge>
    </filter>

    <filter id="m_subtleGlow" x="-20%" y="-20%" width="140%" height="140%">
      <feGaussianBlur in="SourceGraphic" stdDeviation="3" result="blur"/>
      <feColorMatrix in="blur" type="matrix"
        values="1 0.5 0 0 0  0.5 0.3 0 0 0  0 0 0 0 0  0 0 0 0.4 0"/>
      <feMerge>
        <feMergeNode/>
        <feMergeNode in="SourceGraphic"/>
      </feMerge>
    </filter>
  </defs>

  <!-- Background rounded square -->
  <rect x="32" y="32" width="448" height="448" rx="96" fill="url(#m_bgGrad)"/>

  <!-- Subtle inner border -->
  <rect x="36" y="36" width="440" height="440" rx="93" fill="none" stroke="#1F2937" stroke-width="1"/>

  <!-- === Abstract Anvil + F Monogram === -->
  <!-- The letter F is formed by the negative space of an anvil silhouette -->

  <g transform="translate(256, 256)">

    <!-- Main F letterform - bold geometric -->
    <!-- Vertical stroke of F (also anvil body) -->
    <rect x="-88" y="-130" width="42" height="260" rx="4" fill="url(#m_forgeOrange)"/>

    <!-- Top horizontal bar of F (also anvil face/horn) -->
    <path d="M-88,-130 L88,-130 L88,-92 L-46,-92 Z" fill="url(#m_forgeOrange)"/>
    <!-- Horn extension on top bar -->
    <path d="M88,-130 L120,-111 L88,-92 Z" fill="#D94F00" opacity="0.8"/>

    <!-- Middle horizontal bar of F (shorter) -->
    <rect x="-46" y="-20" width="120" height="38" rx="4" fill="url(#m_forgeOrange)"/>

    <!-- Anvil base suggestion at bottom of vertical -->
    <path d="M-100,118 L-46,118 L-46,130 L-88,130 Z" fill="url(#m_forgeOrange)"/>
    <path d="M-46,118 L-46,130 L-30,130 Z" fill="#D94F00" opacity="0.6"/>

    <!-- === Sparks emanating from top-right === -->
    <g filter="url(#m_sparkGlow)">
      <circle cx="105" cy="-140" r="6" fill="#FFF7ED"/>
      <circle cx="130" cy="-120" r="4" fill="#FDBA74"/>
      <circle cx="85" cy="-155" r="3.5" fill="#FFD4A8"/>
      <circle cx="140" cy="-145" r="3" fill="#FFF7ED"/>
      <circle cx="115" cy="-165" r="2.5" fill="#FDBA74"/>
    </g>

    <!-- Spark trails -->
    <g filter="url(#m_subtleGlow)">
      <line x1="95" y1="-135" x2="115" y2="-158" stroke="#FDBA74" stroke-width="2" stroke-linecap="round" opacity="0.7"/>
      <line x1="110" y1="-128" x2="138" y2="-148" stroke="#FFD4A8" stroke-width="1.5" stroke-linecap="round" opacity="0.6"/>
      <line x1="125" y1="-118" x2="145" y2="-130" stroke="#FDBA74" stroke-width="1.5" stroke-linecap="round" opacity="0.5"/>
    </g>

    <!-- Strike point glow at horn tip -->
    <ellipse cx="104" cy="-111" rx="18" ry="14" fill="#F97316" opacity="0.15" filter="url(#m_sparkGlow)"/>

  </g>

</svg>